<?xml version="1.0" standalone="no"?>
<!DOCTYPE svg PUBLIC "-//W3C//DTD SVG 20010904//EN"
 "http://www.w3.org/TR/2001/REC-SVG-20010904/DTD/svg10.dtd">
<svg version="1.0" xmlns="http://www.w3.org/2000/svg"
 width="640.000000pt" height="1280.000000pt" viewBox="0 0 640.000000 1280.000000"
 preserveAspectRatio="xMidYMid meet">
<metadata>
Created by potrace 1.15, written by Peter Selinger 2001-2017
</metadata>
<g transform="translate(0.000000,1280.000000) scale(0.100000,-0.100000)"
fill="#000000" stroke="none">
<path d="M3025 12790 c-83 -13 -176 -61 -224 -117 -92 -103 -130 -235 -138
-470 -7 -191 5 -333 53 -628 61 -377 42 -543 -77 -679 -49 -56 -151 -108 -264
-136 -44 -10 -173 -31 -288 -45 -218 -27 -319 -45 -402 -72 -215 -69 -352
-215 -411 -438 -16 -58 -19 -105 -19 -275 1 -201 12 -318 50 -499 11 -55 11
-77 -1 -145 -44 -258 -59 -628 -30 -778 8 -40 44 -172 81 -293 80 -267 125
-446 125 -500 0 -22 -18 -146 -39 -275 -74 -442 -75 -518 -15 -1024 19 -165
36 -339 36 -386 1 -47 -18 -236 -41 -420 -55 -430 -54 -457 17 -595 99 -192
243 -393 274 -383 34 12 18 99 -77 403 -47 149 -56 189 -52 230 10 99 98 308
121 285 7 -7 13 -93 16 -235 4 -192 7 -227 22 -241 15 -15 18 -15 41 9 53 52
136 254 156 378 11 68 7 99 -43 319 -74 321 -70 393 47 822 106 386 113 451
91 777 -19 277 -15 428 21 686 42 310 68 466 76 453 12 -22 96 -444 120 -598
19 -126 21 -172 16 -350 -5 -200 -18 -311 -68 -595 -122 -695 -127 -734 -139
-1105 -9 -284 -15 -351 -59 -690 -77 -590 -43 -1129 125 -2023 34 -178 35
-190 20 -227 -52 -131 -79 -322 -79 -560 1 -313 16 -393 203 -1030 110 -375
124 -428 144 -531 l14 -73 -47 -90 c-25 -50 -96 -167 -157 -261 -135 -206
-164 -261 -164 -315 0 -35 4 -42 27 -51 17 -6 172 -11 399 -12 302 -2 374 1
387 12 23 19 22 84 -5 256 -17 112 -21 185 -21 365 0 218 1 236 51 580 65 455
73 547 75 880 1 319 -14 464 -80 773 -18 85 -20 69 37 342 134 639 236 1410
258 1960 l7 170 8 -155 c31 -635 135 -1405 280 -2071 l34 -157 -33 -169 c-51
-262 -64 -405 -64 -694 0 -290 14 -459 66 -819 73 -501 81 -678 44 -955 -31
-232 -34 -277 -18 -299 20 -25 153 -31 512 -21 258 7 280 9 298 27 40 40 15
97 -163 369 -60 91 -127 201 -149 245 -37 71 -41 84 -35 129 10 78 55 250 165
620 111 378 164 598 180 754 26 262 1 559 -64 755 l-23 68 28 152 c65 342 110
635 146 956 13 119 17 238 17 515 0 347 -1 369 -31 595 -49 361 -53 414 -63
725 -10 321 -18 386 -105 885 -123 706 -130 864 -59 1260 43 236 104 511 104
467 0 -4 9 -65 20 -135 65 -402 74 -490 74 -717 0 -121 -2 -326 -5 -455 -5
-266 -4 -269 91 -620 79 -290 93 -369 94 -505 0 -109 -4 -139 -48 -325 -41
-175 -47 -216 -43 -280 7 -121 95 -345 159 -407 29 -27 30 -27 44 -9 11 15 14
61 15 205 1 195 7 271 24 273 13 1 67 -107 91 -180 38 -122 38 -128 -32 -352
-35 -113 -72 -240 -81 -283 -15 -70 -15 -79 -1 -93 13 -14 18 -12 47 12 44 37
175 236 241 369 55 109 55 110 53 195 -1 47 -20 234 -43 415 -49 384 -49 399
1 800 28 222 33 292 33 480 0 231 0 234 -70 639 l-27 159 22 101 c11 56 60
232 107 391 71 244 87 308 95 405 16 170 -4 472 -44 686 -7 40 -10 84 -5 104
48 229 74 523 58 669 -22 199 -69 311 -180 421 -139 140 -264 180 -730 236
-322 38 -467 110 -540 267 -60 128 -63 274 -11 592 50 311 63 476 50 672 -13
214 -62 346 -159 437 -84 77 -152 97 -340 102 -80 1 -172 -1 -205 -6z m400
-34 c148 -46 238 -173 276 -386 36 -205 -17 -791 -92 -1012 -65 -192 -205
-380 -325 -435 -68 -31 -133 -27 -199 11 -115 68 -242 249 -304 433 -24 71
-73 361 -91 539 -18 172 -9 435 19 537 53 200 164 308 341 331 76 9 325 -2
375 -18z m-538 -1647 c92 -135 216 -229 304 -229 84 0 183 59 260 154 56 71
124 182 148 243 l18 46 6 -109 c13 -246 102 -374 313 -450 72 -26 179 -46 379
-69 171 -20 324 -49 399 -75 206 -70 330 -207 387 -425 39 -147 27 -467 -29
-741 -15 -77 -16 -98 -5 -154 32 -171 47 -342 47 -540 -1 -234 2 -217 -103
-570 -39 -129 -83 -288 -97 -353 l-27 -119 42 -251 c23 -139 46 -297 52 -351
17 -144 5 -391 -30 -681 -50 -400 -50 -409 -1 -795 23 -184 42 -373 43 -420
l2 -85 -58 -111 c-93 -179 -233 -381 -252 -362 -10 10 19 130 81 330 41 133
64 224 64 255 0 92 -93 323 -133 331 -33 7 -41 -37 -44 -258 -2 -118 -6 -222
-9 -230 -13 -36 -96 116 -143 263 -40 127 -40 181 3 366 49 206 66 304 66 371
0 92 -34 266 -103 525 -90 336 -101 410 -93 615 19 508 19 568 -3 740 -12 91
-37 269 -57 395 l-36 230 16 105 c42 275 59 693 35 826 -13 70 -35 120 -56
128 -25 10 -27 0 -4 -23 33 -33 43 -89 48 -274 8 -294 -20 -570 -93 -911 -158
-739 -160 -857 -19 -1643 82 -460 95 -571 105 -883 10 -309 15 -365 61 -725
41 -313 50 -704 25 -999 -28 -320 -79 -678 -154 -1072 l-29 -152 23 -68 c55
-165 80 -383 71 -619 -9 -248 -36 -377 -192 -906 -110 -372 -150 -523 -160
-600 -6 -51 -4 -60 37 -140 24 -46 94 -161 155 -255 156 -238 193 -315 161
-342 -18 -15 -684 -28 -743 -15 l-40 9 1 60 c0 32 10 132 22 222 39 289 32
452 -42 957 -59 414 -61 435 -61 820 0 388 2 408 64 724 27 137 28 148 14 205
-8 34 -36 171 -63 306 -132 658 -217 1344 -238 1915 -6 154 -9 180 -23 183
-19 3 -29 -68 -29 -202 0 -105 -25 -440 -51 -681 -50 -474 -122 -923 -226
-1410 -33 -155 -35 -175 -25 -230 6 -33 22 -121 36 -195 44 -239 50 -320 49
-615 -1 -331 -8 -408 -75 -875 -49 -340 -51 -364 -52 -575 0 -179 4 -248 23
-371 12 -84 21 -171 19 -195 -3 -40 -6 -45 -33 -50 -42 -9 -305 -10 -539 -2
-229 7 -232 8 -212 77 15 51 51 112 187 318 53 81 115 184 137 230 l41 83 -15
73 c-21 109 -36 165 -144 532 -185 630 -203 719 -203 1025 -1 240 26 432 79
565 15 37 14 49 -20 227 -167 884 -201 1430 -126 2018 44 338 51 423 60 700
10 315 21 423 76 735 128 738 139 826 131 1078 -5 198 -23 317 -107 706 -64
297 -76 381 -96 636 -17 215 -14 447 6 530 6 25 21 55 32 67 12 13 18 26 14
30 -15 15 -55 -47 -68 -104 -27 -121 -14 -529 29 -840 l17 -123 -37 -242 c-81
-527 -87 -625 -63 -971 22 -316 17 -367 -84 -748 -125 -473 -128 -527 -54
-849 19 -85 39 -180 44 -210 16 -91 -17 -224 -91 -376 -34 -70 -75 -127 -81
-113 0 2 -4 108 -7 236 -5 201 -8 235 -23 249 -16 17 -18 17 -36 1 -41 -37
-110 -213 -119 -302 -4 -39 3 -76 33 -170 104 -336 128 -435 106 -435 -27 0
-159 196 -243 360 -72 139 -72 159 -20 590 23 184 43 352 45 374 5 40 -7 160
-49 516 -48 413 -46 515 25 939 22 130 40 254 40 276 0 54 -44 231 -125 500
-97 327 -99 336 -92 620 5 184 12 274 30 386 24 146 24 146 6 240 -52 271 -64
604 -25 744 42 151 126 273 240 346 113 74 227 104 544 143 239 30 327 48 409
80 192 75 282 222 283 461 l1 90 33 -71 c18 -39 56 -104 83 -145z"/>
</g>
</svg>
